PathFileType	3	(X/Y/Z)	walking_3__view2_aligned.trc
DataRate	CameraRate	NumFrames	NumMarkers	Units	OrigDataRate	OrigDataStartFrame	OrigNumFrames
100.0	100.0	15	19	mm	100.0	5784	6318
Frame#	Time	pelvis			neck			head			hip_left			hip_right			knee_left			knee_right			ankle_left			ankle_right			heel_left			heel_right			toe_left			toe_right			shoulder_left			shoulder_right			elbow_left			elbow_right			wrist_left			wrist_right			
		X1	Y1	Z1	X2	Y2	Z2	X3	Y3	Z3	X4	Y4	Z4	X5	Y5	Z5	X6	Y6	Z6	X7	Y7	Z7	X8	Y8	Z8	X9	Y9	Z9	X10	Y10	Z10	X11	Y11	Z11	X12	Y12	Z12	X13	Y13	Z13	X14	Y14	Z14	X15	Y15	Z15	X16	Y16	Z16	X17	Y17	Z17	X18	Y18	Z18	X19	Y19	Z19	
5784	57.83000	-4.348917	933.638927	171.325740	-7.815448	1495.930155	263.628825	-11.366938	1569.132476	420.434305	72.928909	935.920947	165.404830	-81.626546	931.356938	177.246671	109.299561	514.426615	299.884311	-117.904977	505.820231	217.020849	113.715375	78.398895	315.612995	-147.070137	216.325864	-87.395822	107.520133	21.150323	289.715661	-146.432522	204.339220	-142.370407	119.026499	50.237750	518.630609	-159.794202	59.859657	-5.260488	165.057573	1450.017640	193.630722	-187.348017	1436.312539	246.044062	248.539563	1169.673970	108.376054	-258.886030	1144.518676	265.669177	324.576560	901.984246	102.842746	-237.103105	935.162961	430.786472
5785	57.84000	-1.320396	933.391857	171.523514	-5.222582	1495.768193	264.109615	-9.945303	1569.050883	420.789556	76.015369	935.848552	165.463502	-78.655938	930.935195	177.583547	111.356599	512.677991	293.059993	-115.714978	506.977980	224.609496	115.082580	76.410706	307.343361	-146.486945	218.161698	-77.859494	108.722695	19.198113	281.360020	-145.899895	206.411786	-132.688473	120.972974	47.896868	510.126627	-159.521589	61.327228	3.330054	167.683708	1450.057398	195.147753	-184.181606	1436.378658	245.153218	251.948826	1169.969396	110.533445	-255.726194	1144.760807	262.475797	327.271187	902.198065	106.326369	-237.280573	933.349748	423.662839
5786	57.85000	1.708125	933.144786	171.721287	-2.629716	1495.606232	264.590405	-8.523668	1568.969289	421.144806	79.101828	935.776157	165.522174	-75.685330	930.513452	177.920423	113.413637	510.929367	286.235676	-113.524979	508.135729	232.198142	116.449785	74.422517	299.073727	-145.903752	219.997531	-68.323167	109.925258	17.245903	273.004378	-145.367269	208.484351	-123.006540	122.919450	45.555985	501.622645	-159.248977	62.794800	11.920597	170.309844	1450.097157	196.664784	-181.015196	1436.444777	244.262374	255.358090	1170.264821	112.690835	-252.566358	1145.002937	259.282418	329.965814	902.411883	109.809992	-237.458040	931.536535	416.539206
5787	57.86000	2.510870	932.913502	171.710521	-2.260562	1495.281541	264.812252	-8.891619	1568.564962	421.203278	79.908172	935.717509	165.426430	-74.886257	930.109533	177.994629	113.824785	510.093452	277.454789	-113.034585	509.561324	240.867201	116.335423	74.731882	283.272957	-146.243284	219.894992	-51.663096	109.701991	18.014163	256.399540	-145.753549	207.873739	-105.689931	123.584923	43.043572	485.377512	-159.672598	64.430498	29.730055	170.852659	1450.007002	198.446608	-180.172105	1436.546188	242.877453	256.615531	1170.434367	116.549454	-251.044073	1145.472901	254.031679	328.640547	903.966633	118.901911	-238.903113	929.507420	405.333594
5788	57.87000	3.313616	932.682218	171.699754	-1.891408	1494.956850	265.034100	-9.259571	1568.160634	421.261750	80.714516	935.658862	165.330685	-74.087183	929.705613	178.068836	114.235932	509.257536	268.673902	-112.544191	510.986919	249.536259	116.221060	75.041246	267.472187	-146.582816	219.792452	-35.003025	109.478725	18.782422	239.794701	-146.139828	207.263126	-88.373322	124.250396	40.531158	469.132379	-160.096218	66.066197	47.539513	171.395473	1449.916848	200.228432	-179.329015	1436.647598	241.492532	257.872973	1170.603914	120.408073	-249.521787	1145.942866	248.780940	327.315279	905.521382	127.993830	-240.348186	927.478305	394.127981
5789	57.88000	4.116361	932.450934	171.688988	-1.522254	1494.632159	265.255947	-9.627523	1567.756307	421.320222	81.520860	935.600214	165.234941	-73.288109	929.301693	178.143042	114.647080	508.421620	259.893016	-112.053797	512.412514	258.205317	116.106698	75.350610	251.671416	-146.922348	219.689913	-18.342955	109.255459	19.550681	223.189863	-146.526108	206.652514	-71.056713	124.915868	38.018745	452.887246	-160.519838	67.701896	65.348971	171.938288	1449.826694	202.010256	-178.485924	1436.749009	240.107611	259.130415	1170.773461	124.266691	-247.999502	1146.412830	243.530201	325.990012	907.076132	137.085749	-241.793258	925.449190	382.922368
5790	57.89000	4.919107	932.219650	171.678221	-1.153101	1494.307468	265.477794	-9.995475	1567.351980	421.378695	82.327204	935.541567	165.139197	-72.489036	928.897774	178.217249	115.058228	507.585704	251.112129	-111.563403	513.838109	266.874375	115.992335	75.659975	235.870646	-147.261880	219.587373	-1.682884	109.032193	20.318941	206.585024	-146.912388	206.041901	-53.740105	125.581341	35.506332	436.642113	-160.943458	69.337595	83.158429	172.481103	1449.736540	203.792080	-177.642834	1436.850420	238.722690	260.387857	1170.943007	128.125310	-246.477216	1146.882794	238.279462	324.664744	908.630881	146.177669	-243.238331	923.420075	371.716756
5791	57.90000	5.721852	931.988366	171.667455	-0.783947	1493.982777	265.699641	-10.363426	1566.947653	421.437167	83.133548	935.482919	165.043453	-71.689962	928.493854	178.291455	115.469375	506.749789	242.331243	-111.073008	515.263704	275.543434	115.877973	75.969339	220.069876	-147.601412	219.484834	14.977187	108.808926	21.087200	189.980185	-147.298668	205.431289	-36.423496	126.246814	32.993919	420.396980	-161.367078	70.973293	100.967887	173.023918	1449.646386	205.573904	-176.799744	1436.951831	237.337769	261.645298	1171.112554	131.983929	-244.954930	1147.352758	233.028723	323.339477	910.185631	155.269588	-244.683404	921.390960	360.511143
5792	57.91000	6.524598	931.757082	171.656688	-0.414793	1493.658086	265.921488	-10.731378	1566.543326	421.495639	83.939892	935.424272	164.947708	-70.890888	928.089934	178.365661	115.880523	505.913873	233.550356	-110.582614	516.689300	284.212492	115.763611	76.278703	204.269106	-147.940944	219.382294	31.637258	108.585660	21.855459	173.375347	-147.684948	204.820676	-19.106887	126.912287	30.481505	404.151846	-161.790698	72.608992	118.777345	173.566733	1449.556232	207.355728	-175.956653	1437.053242	235.952848	262.902740	1171.282100	135.842548	-243.432645	1147.822723	227.777984	322.014210	911.740380	164.361507	-246.128476	919.361845	349.305531
5793	57.92000	7.327343	931.525797	171.645922	-0.045639	1493.333395	266.143336	-11.099330	1566.138999	421.554111	84.746235	935.365624	164.851964	-70.091815	927.686015	178.439868	116.291671	505.077957	224.769470	-110.092220	518.114895	292.881550	115.649248	76.588067	188.468336	-148.280476	219.279755	48.297329	108.362394	22.623719	156.770508	-148.071228	204.210064	-1.790278	127.577760	27.969092	387.906713	-162.214318	74.244691	136.586803	174.109548	1449.466077	209.137552	-175.113563	1437.154653	234.567927	264.160182	1171.451647	139.701166	-241.910359	1148.292687	222.527245	320.688942	913.295130	173.453426	-247.573549	917.332730	338.099918
5794	57.93000	8.130089	931.294513	171.635156	0.323515	1493.008704	266.365183	-11.467282	1565.734671	421.612584	85.552579	935.306977	164.756220	-69.292741	927.282095	178.514074	116.702819	504.242041	215.988583	-109.601826	519.540490	301.550608	115.534886	76.897432	172.667566	-148.620008	219.177216	64.957399	108.139128	23.391978	140.165670	-148.457508	203.599451	15.526331	128.243233	25.456679	371.661580	-162.637938	75.880390	154.396261	174.652362	1449.375923	210.919376	-174.270472	1437.256064	233.183006	265.417623	1171.621194	143.559785	-240.388074	1148.762651	217.276506	319.363675	914.849879	182.545346	-249.018621	915.303615	326.894306
5795	57.94000	8.932834	931.063229	171.624389	0.692669	1492.684014	266.587030	-11.835233	1565.330344	421.671056	86.358923	935.248329	164.660476	-68.493667	926.878175	178.588281	117.113966	503.406125	207.207696	-109.111432	520.966085	310.219667	115.420524	77.206796	156.866795	-148.959540	219.074676	81.617470	107.915862	24.160237	123.560831	-148.843788	202.988839	32.842940	128.908705	22.944266	355.416447	-163.061558	77.516088	172.205719	175.195177	1449.285769	212.701200	-173.427382	1437.357475	231.798085	266.675065	1171.790740	147.418404	-238.865788	1149.232615	212.025767	318.038408	916.404629	191.637265	-250.463694	913.274500	315.688693
5796	57.95000	9.735580	930.831945	171.613623	1.061822	1492.359323	266.808877	-12.203185	1564.926017	421.729528	87.165267	935.189682	164.564731	-67.694593	926.474256	178.662487	117.525114	502.570210	198.426810	-108.621037	522.391680	318.888725	115.306161	77.516160	141.066025	-149.299072	218.972137	98.277541	107.692595	24.928497	106.955992	-149.230068	202.378227	50.159549	129.574178	20.431852	339.171314	-163.485178	79.151787	190.015178	175.737992	1449.195615	214.483024	-172.584291	1437.458885	230.413164	267.932507	1171.960287	151.277023	-237.343503	1149.702580	206.775028	316.713140	917.959378	200.729184	-251.908767	911.245385	304.483081
5797	57.96000	8.155359	930.761078	171.332719	-0.716250	1491.814793	267.097245	-14.638510	1564.545441	421.900243	85.539617	935.110189	164.170230	-69.229360	926.412012	178.495181	116.100833	501.976239	190.984672	-109.851612	523.928708	326.437482	113.016576	80.078236	124.175867	-150.719118	216.853578	116.059597	105.223270	28.596381	89.205431	-150.791493	199.094650	68.822837	127.662456	19.190363	319.176097	-164.514028	80.485697	210.816009	174.372282	1448.581398	216.345627	-174.104808	1437.163933	229.352423	266.406096	1171.279123	155.649582	-238.448232	1150.007656	201.550282	311.757072	918.697647	210.272724	-255.423879	909.654604	292.248109
5798	57.97000	6.575138	930.690211	171.051816	-2.494323	1491.270263	267.385613	-17.073835	1564.164865	422.070957	83.913966	935.030696	163.775728	-70.764126	926.349769	178.327876	114.676553	501.382267	183.542534	-111.082186	525.465736	333.986240	110.726991	82.640312	107.285709	-152.139164	214.735020	133.841653	102.753945	32.264266	71.454871	-152.352919	195.811073	87.486126	125.750733	17.948874	299.180879	-165.542878	81.819607	231.616839	173.006571	1447.967180	218.208231	-175.625325	1436.868981	228.291681	264.879685	1170.597960	160.022142	-239.552961	1150.312733	196.325535	306.801005	919.435915	219.816263	-258.938991	908.063823	280.013138
